# xmcd
#
# Track frame offsets: 
#        150
#        57987
#        84941
#        117406
#        152583
#        181492
#        204947
#        241286
#        272758
#        299058
#
# Disc length: 4498 seconds
#
# Revision: 16
# Processed by: cddbd v1.5.2PL0 Copyright (c) Steve Scherf et al.
# Submitted via: ExactAudioCopy v0.99pb4
#
DISCID=8c11900a
DTITLE=Eric Clapton - Blues [CD2 - Live Disc)
DYEAR=1999
DGENRE=Blues
TTITLE0=Stormy Monday
TTITLE1=Worried Life Blues
TTITLE2=Early In The Morning
TTITLE3=Have You Ever Loved A Woman
TTITLE4=Wonderful Tonight
TTITLE5=Kind Hearted Woman
TTITLE6=Double Trouble
TTITLE7=Driftin' Blues
TTITLE8=Crossroads
TTITLE9=Further On Up The Road (Previously Unreleased)
EXTD=YEAR: 1999
EXTT0=
EXTT1=
EXTT2=
EXTT3=
EXTT4=
EXTT5=
EXTT6=
EXTT7=
EXTT8=
EXTT9=
PLAYORDER=
